<svg width="76" height="76" viewBox="0 0 76 76" fill="none" xmlns="http://www.w3.org/2000/svg">
<g filter="url(#filter0_d)">
<circle cx="38" cy="34" r="28" fill="#FE0557"/>
</g>
<mask id="path-2-inside-1" fill="white">
<path fill-rule="evenodd" clip-rule="evenodd" d="M25.75 32.0703C25.75 24.7764 33.5603 21.265 38 27.8804C42.4397 21.265 50.25 24.7764 50.25 32.0703C50.25 38.7049 40.5574 44.6619 38 46.1182C35.4426 44.6619 25.75 38.7049 25.75 32.0703Z"/>
</mask>
<path d="M38 27.8804L36.3393 28.9949L38 31.4693L39.6607 28.9949L38 27.8804ZM38 46.1182L37.0103 47.8561L38 48.4197L38.9897 47.8561L38 46.1182ZM39.6607 26.7658C36.9951 22.7941 32.9905 21.5496 29.4933 22.8922C26.117 24.1884 23.75 27.7029 23.75 32.0703H27.75C27.75 29.1439 29.2881 27.2557 30.9269 26.6265C32.4448 26.0437 34.5651 26.3512 36.3393 28.9949L39.6607 26.7658ZM39.6607 28.9949C41.4349 26.3512 43.5552 26.0437 45.0731 26.6265C46.7119 27.2557 48.25 29.1439 48.25 32.0703H52.25C52.25 27.7029 49.883 24.1884 46.5067 22.8922C43.0095 21.5496 39.0049 22.7941 36.3393 26.7658L39.6607 28.9949ZM48.25 32.0703C48.25 34.4753 46.423 37.1089 43.7366 39.5581C41.1528 41.9137 38.2365 43.6819 37.0103 44.3802L38.9897 47.8561C40.3209 47.0981 43.5296 45.1597 46.4315 42.5141C49.2306 39.9621 52.25 36.2999 52.25 32.0703H48.25ZM23.75 32.0703C23.75 36.2999 26.7694 39.9621 29.5685 42.5141C32.4704 45.1597 35.6791 47.0981 37.0103 47.8561L38.9897 44.3802C37.7635 43.6819 34.8472 41.9137 32.2634 39.5581C29.577 37.1089 27.75 34.4753 27.75 32.0703H23.75Z" fill="white" mask="url(#path-2-inside-1)"/>
<defs>
<filter id="filter0_d" x="0" y="0" width="76" height="76" filterUnits="userSpaceOnUse" color-interpolation-filters="sRGB">
<feFlood flood-opacity="0" result="BackgroundImageFix"/>
<feColorMatrix in="SourceAlpha" type="matrix" values="0 0 0 0 0 0 0 0 0 0 0 0 0 0 0 0 0 0 127 0"/>
<feOffset dy="4"/>
<feGaussianBlur stdDeviation="5"/>
<feColorMatrix type="matrix" values="0 0 0 0 0.996078 0 0 0 0 0.0196078 0 0 0 0 0.341176 0 0 0 0.6 0"/>
<feBlend mode="normal" in2="BackgroundImageFix" result="effect1_dropShadow"/>
<feBlend mode="normal" in="SourceGraphic" in2="effect1_dropShadow" result="shape"/>
</filter>
</defs>
</svg>
